<svg width="227" height="129" viewBox="0 0 227 129" fill="none" xmlns="http://www.w3.org/2000/svg">
<path d="M2 51L15.6329 73.2629C17.0055 75.5043 19.9677 76.1529 22.1513 74.6899V74.6899C22.8349 74.2319 23.384 73.5998 23.7418 72.8588L27.8784 64.2928C30.7764 58.2917 39.0352 57.5668 42.9343 62.9714V62.9714C43.6723 63.9944 44.1817 65.1641 44.4279 66.4012L51.0748 99.8C51.8523 103.707 56.53 105.354 59.5837 102.796L60.9539 101.649C62.9381 99.9874 65.9609 100.687 67.0134 103.051V103.051C68.3946 106.154 72.8077 106.126 74.15 103.007L78.9901 91.7588C80.4515 88.3625 83.7941 86.1619 87.4915 86.1619H90.5731C95.6978 86.1619 100.409 83.3493 102.841 78.8381L106.899 71.3088C109.946 65.6555 116.298 62.62 122.611 63.8003L124.773 64.2045C125.892 64.4137 127.046 64.3262 128.121 63.9506V63.9506C131.497 62.7704 135.194 64.5323 136.403 67.8983L139.364 76.1378C141.525 82.1514 147.227 86.1619 153.617 86.1619V86.1619C155.253 86.1619 156.878 86.4268 158.428 86.9463L159.404 87.2732C165.01 89.1511 169.577 93.2859 172 98.6785L174.289 103.773C176.315 108.281 180.798 111.181 185.74 111.181H186.43C189.399 111.181 192.24 112.388 194.3 114.526L196.385 116.688C199.255 119.665 203.953 119.873 207.074 117.16V117.16C210.683 114.023 216.242 114.86 218.767 118.921L219 119.295" stroke="#FF4343" stroke-width="3" stroke-linecap="round"/>
<path d="M3.84668 106.621V106.621C9.73748 115.522 23.3348 113.531 26.425 103.313L28.3892 96.8187C30.4045 90.1556 36.5447 85.5977 43.5059 85.5977H47.9389V85.5977C50.4085 85.5977 52.6603 84.1845 53.7342 81.9606L60.4803 67.9908C62.54 63.7255 67.4709 61.6831 71.9433 63.2427V63.2427C77.1246 65.0495 82.7378 62.012 84.0595 56.6863L84.2285 56.0051C86.6476 46.2569 100.338 45.8104 103.388 55.3802L107.128 67.1191C108.718 72.1096 114.485 74.3868 119.056 71.8287L119.4 71.636C123.948 69.0907 129.675 71.5228 131.002 76.5629V76.5629C133.173 84.8136 145.039 84.3458 146.554 75.9498L152.861 41.0087C154.173 33.7374 163.531 31.5393 167.943 37.466V37.466C168.27 37.9053 168.554 38.3753 168.79 38.8694L169.205 39.7386C175.82 53.59 195.515 53.6544 202.221 39.8465L216.23 11" stroke="#C2D44B" stroke-width="3" stroke-linecap="round"/>
<path d="M186.734 18.829C186.316 18.9019 185.886 18.7372 185.665 18.3736C185.177 17.5717 184.845 16.6851 184.685 15.7601C184.384 14.0361 184.699 12.3492 185.468 10.92C185.584 10.705 185.783 10.5516 185.991 10.426C186.426 10.1646 186.78 9.76696 187.027 9.30781C187.621 8.19897 188.441 7.2265 189.434 6.45263C190.08 5.9503 190.6 5.27923 190.768 4.47951C190.886 3.91914 190.897 3.3413 190.798 2.77706L190.69 2.15344C190.656 1.95747 190.701 1.75598 190.815 1.59329C190.93 1.43059 191.104 1.32003 191.3 1.28591C191.888 1.18355 192.492 1.31892 192.98 1.66225C193.468 2.00557 193.8 2.52872 193.903 3.11662C194.1 4.25154 194.031 5.37097 193.742 6.41094C193.576 7.00629 194.068 7.65558 194.676 7.54958L197.756 7.01337C198.767 6.83738 199.791 7.36346 200.074 8.35063C200.19 8.75866 200.287 9.17637 200.361 9.60492C200.835 12.3 200.369 15.0759 199.042 17.4688C198.742 18.0102 198.194 18.3563 197.585 18.4623L193.629 19.1512C193.153 19.2341 192.666 19.2397 192.188 19.1687L188.941 18.6783C188.463 18.6066 187.976 18.6125 187.5 18.6958L186.734 18.829ZM180.316 12.0567C180.013 13.5311 179.991 15.0495 180.251 16.532C180.454 17.7029 180.829 18.8373 181.365 19.8979C181.767 20.6907 182.669 21.0595 183.545 20.907L184.437 20.7516C184.876 20.6752 185.061 20.1375 184.798 19.7772C183.985 18.6632 183.44 17.3766 183.206 16.0176C182.913 14.3349 183.108 12.68 183.688 11.1974C183.86 10.7584 183.496 10.2575 183.031 10.3384L181.996 10.5187C181.176 10.6614 180.484 11.2417 180.316 12.0567Z" fill="#C2D44B"/>
<path d="M212.786 80.2662C213.156 80.0561 213.616 80.066 213.946 80.3336C214.676 80.9234 215.289 81.6454 215.752 82.4619C216.617 83.9831 216.892 85.677 216.651 87.282C216.614 87.5236 216.479 87.735 216.325 87.9238C216.005 88.3167 215.806 88.8105 215.729 89.3261C215.543 90.5707 215.1 91.763 214.428 92.8267C213.989 93.5179 213.727 94.325 213.839 95.1346C213.917 95.702 214.102 96.2494 214.386 96.7472L214.698 97.2974C214.797 97.4703 214.822 97.6752 214.77 97.867C214.717 98.0588 214.59 98.2218 214.417 98.3201C213.899 98.6151 213.284 98.692 212.708 98.5338C212.133 98.3756 211.644 97.9953 211.349 97.4766C210.78 96.4752 210.466 95.3983 210.387 94.3219C210.342 93.7053 209.66 93.2604 209.123 93.5659L206.406 95.1112C205.514 95.6184 204.372 95.4694 203.772 94.6358C203.525 94.2912 203.293 93.9305 203.078 93.5524C201.722 91.1758 201.222 88.4058 201.663 85.7051C201.762 85.0943 202.16 84.5835 202.697 84.278L206.188 82.2927C206.608 82.054 207.065 81.884 207.539 81.7892L210.76 81.1538C211.234 81.0597 211.69 80.8896 212.111 80.6503L212.786 80.2662ZM221.116 84.4712C220.902 82.9812 220.41 81.5448 219.664 80.2374C219.078 79.2038 218.341 78.2631 217.478 77.4459C216.832 76.8356 215.859 76.7931 215.086 77.2326L214.299 77.6805C213.912 77.9005 213.919 78.4693 214.288 78.7196C215.43 79.4934 216.377 80.5201 217.057 81.7199C217.901 83.2046 218.277 84.8281 218.232 86.4195C218.218 86.891 218.73 87.2393 219.141 87.006L220.054 86.4864C220.777 86.0752 221.232 85.2953 221.116 84.4712Z" fill="#FF4343"/>
</svg>
