<svg width="110" height="32" viewBox="0 0 110 32" fill="none" xmlns="http://www.w3.org/2000/svg">

<path d="M15.6445 17.5863C13.1883 15.0779 23.7323 7.99678 23.7323 7.99678L21.0385 4.26697C21.0385 4.26697 16.9095 7.67863 13.8541 11.6518C13.2063 12.5479 11.9349 11.8086 12.7039 10.5377C14.5991 7.40511 20.0893 2.33908 20.0893 2.33908L15.9176 0.34222C15.9176 0.34222 13.1998 2.97064 9.77521 9.56398C9.14895 10.7696 7.87513 10.1591 8.30827 8.91668C9.41671 5.7372 13.012 0.682514 13.012 0.682514L8.64253 0C8.64253 0 6.28571 4.09417 4.82106 9.18297C4.50784 10.2708 3.14382 10.0118 3.30592 8.93104C3.58657 7.05969 5.53001 1.64641 5.53001 1.64641L1.75098 1.66197C1.75098 1.66197 -1.48056 8.90223 0.905911 16.8887C2.2649 21.4366 6.51806 25.9384 12.0685 25.9384C17.5114 25.9384 22.2747 21.9178 23.896 15.7162L20.121 12.9706C20.121 12.9706 18.0169 20.0092 15.6445 17.5863Z" fill="#FEB81D"/>
<path d="M36.9249 10.2792H36.8871V10.3457C36.4163 10.2497 35.9187 10.1955 35.396 10.1955C34.8732 10.1955 34.3755 10.2497 33.9047 10.3457V0.861588L28.2041 0.19856V25.5817H33.9047V15.7702C34.2773 15.5142 34.7829 15.283 35.396 15.283C36.0103 15.283 36.5141 15.5119 36.8871 15.7696C36.8999 15.7784 36.9125 15.7872 36.9249 15.796V25.5817H42.5878V0.861588L36.9249 0.202952V10.2792Z" fill="#480F0E"/>
<path d="M51.1192 9.15513C51.9875 9.15513 52.4405 9.77151 52.5537 13.3615H49.6846C49.7601 10.1341 50.0998 9.15513 51.1192 9.15513ZM52.969 17.7854C52.7048 20.8313 52.1385 21.883 51.0814 21.883C49.9111 21.883 49.6846 20.6138 49.6469 16.48H57.8013V15.1746C57.8013 7.70467 55.1586 5.38397 51.0814 5.38397C45.7961 5.38397 44.2105 9.66283 44.2105 15.8636C44.2105 21.7016 45.7961 25.9805 51.0814 25.9805C55.672 25.9805 57.6788 22.9317 58.0887 18.3776L53.0727 17.7942L52.969 17.7854Z" fill="#480F0E"/>
<path d="M59.7641 25.5817H65.2381V0.835243L59.7641 0.198468V25.5817Z" fill="#480F0E"/>
<path d="M74.3359 21.1939C73.3543 21.1939 72.8258 20.3238 72.8258 15.6822C72.8258 11.077 73.3543 10.1704 74.3359 10.1704C75.3175 10.1704 75.6572 11.1495 75.6572 15.6822C75.6572 20.2149 75.3175 21.1939 74.3359 21.1939ZM76.903 5.38388C74.5624 5.38388 73.4298 7.59581 73.0146 9.55398H72.8258L72.5238 5.78282H67.3518V32H72.8258V21.8467H73.0146C73.4676 23.8048 74.5624 25.9805 76.903 25.9805C79.9232 25.9805 81.2068 23.0071 81.2068 15.6822C81.2068 8.39367 79.9232 5.38388 76.903 5.38388Z" fill="#480F0E"/>
<path d="M89.3607 9.15513C90.229 9.15513 90.682 9.77151 90.7952 13.3615H87.9261C88.0016 10.1341 88.3413 9.15513 89.3607 9.15513ZM89.3229 21.883C88.1526 21.883 87.9261 20.6138 87.8883 16.48H96.0428V15.1746C96.0428 7.70467 93.4001 5.38397 89.3229 5.38397C84.0376 5.38397 82.452 9.66283 82.452 15.8636C82.452 21.7016 84.0376 25.9805 89.3229 25.9805C93.9112 25.9805 95.9182 22.9348 96.3295 18.3845L91.2101 17.789C90.9458 20.8321 90.3795 21.883 89.3229 21.883Z" fill="#480F0E"/>
<path d="M108.463 11.6572L109.973 6.21799C109.142 5.56521 108.501 5.3839 107.632 5.3839C105.669 5.3839 104.084 7.30575 103.593 9.66276H103.404L103.102 5.78274H97.93V25.5816H103.404V15.247C103.404 12.4548 104.612 10.9681 106.311 10.9681C107.028 10.9681 107.821 11.1857 108.463 11.6572Z" fill="#480F0E"/>
</svg>
