<svg viewBox="0 0 16 16" fill="none" xmlns="http://www.w3.org/2000/svg">
<path d="M9.56076 10.1474C8.37165 8.89023 13.4763 5.34127 13.4763 5.34127L12.1722 3.47193C12.1722 3.47193 10.1732 5.18181 8.69397 7.1731C8.38038 7.62222 7.76483 7.25168 8.13711 6.61473C9.05465 5.04473 11.7126 2.50569 11.7126 2.50569L9.693 1.50489C9.693 1.50489 8.37719 2.82222 6.71925 6.12673C6.41606 6.73095 5.79936 6.42501 6.00906 5.80231C6.54569 4.20879 8.28631 1.67544 8.28631 1.67544L6.17089 1.33337C6.17089 1.33337 5.02987 3.38532 4.32079 5.93577C4.16915 6.48099 3.50878 6.35115 3.58726 5.80951C3.72313 4.87161 4.66402 2.15854 4.66402 2.15854L2.83447 2.16633C2.83447 2.16633 1.26998 5.79507 2.42534 9.79778C3.08327 12.0771 5.14236 14.3334 7.82949 14.3334C10.4646 14.3334 12.7707 12.3183 13.5556 9.21015L11.728 7.83408C11.728 7.83408 10.7093 11.3617 9.56076 10.1474Z" fill="white"/>
</svg>
