<?xml version="1.0" encoding="UTF-8"?>
<svg xmlns="http://www.w3.org/2000/svg" xmlns:xlink="http://www.w3.org/1999/xlink" width="16px" height="16px" viewBox="0 0 16 17" version="1.1">
<g id="surface1">
<path style=" stroke:none;fill-rule:evenodd;fill:rgb(42.745098%,44.705882%,50.196078%);fill-opacity:1;" d="M 3.625 0.222656 L 11.984375 0.222656 C 13.863281 0.222656 15.390625 1.746094 15.390625 3.625 L 15.390625 11.984375 C 15.390625 13.863281 13.863281 15.390625 11.984375 15.390625 L 3.625 15.390625 C 1.746094 15.390625 0.222656 13.863281 0.222656 11.984375 L 0.222656 3.625 C 0.222656 1.746094 1.746094 0.222656 3.625 0.222656 Z M 7.992188 5.582031 C 7.507812 5.582031 7.210938 5.742188 7.210938 6.105469 C 7.210938 6.5 7.71875 6.671875 8.351562 6.886719 C 9.375 7.234375 10.722656 7.6875 10.714844 9.382812 C 10.714844 11.066406 9.390625 12.011719 7.472656 12.011719 C 6.605469 12.007812 5.746094 11.832031 4.949219 11.484375 L 4.949219 9.285156 C 5.730469 9.730469 6.605469 9.988281 7.503906 10.035156 C 8.011719 10.035156 8.386719 9.898438 8.386719 9.472656 C 8.386719 9.035156 7.835938 8.835938 7.167969 8.597656 C 6.15625 8.234375 4.875 7.773438 4.875 6.234375 C 4.875 4.582031 6.128906 3.605469 7.996094 3.605469 C 8.78125 3.597656 9.558594 3.738281 10.289062 4.027344 L 10.289062 6.175781 C 9.578125 5.800781 8.792969 5.597656 7.992188 5.582031 Z M 7.992188 5.582031 "/>
</g>
</svg>
