<svg width="16" height="12" viewBox="0 0 16 12" fill="none" xmlns="http://www.w3.org/2000/svg">
<path d="M1.125 2.375C1.74632 2.375 2.25 1.87132 2.25 1.25C2.25 0.62868 1.74632 0.125 1.125 0.125C0.50368 0.125 0 0.62868 0 1.25C0 1.87132 0.50368 2.375 1.125 2.375Z" fill="currentColor"/>
<path d="M4.49997 2H13.5V0.5H4.49997V2Z" fill="currentColor"/>
<path d="M2.25 6.12198C2.25 6.7433 1.74632 7.24698 1.125 7.24698C0.50368 7.24698 0 6.7433 0 6.12198C0 5.50066 0.50368 4.99698 1.125 4.99698C1.74632 4.99698 2.25 5.50066 2.25 6.12198Z" fill="currentColor"/>
<path d="M4.49592 6.84697L15.9958 6.89697L16.0039 5.39699L4.50401 5.347L4.49592 6.84697Z" fill="currentColor"/>
<path d="M2.25 10.75C2.25 11.3713 1.74632 11.875 1.125 11.875C0.50368 11.875 0 11.3713 0 10.75C0 10.1287 0.50368 9.625 1.125 9.625C1.74632 9.625 2.25 10.1287 2.25 10.75Z" fill="currentColor"/>
<path d="M4.49997 11.5H10.5V10H4.49997V11.5Z" fill="currentColor"/>
</svg>
