<svg width="16" height="16" viewBox="0 0 16 16" fill="none" xmlns="http://www.w3.org/2000/svg">
<path fill-rule="evenodd" clip-rule="evenodd" d="M13.0592 2.9408C12.0048 1.88638 10.2953 1.88638 9.24086 2.9408L2.94086 9.2408C1.88644 10.2952 1.88644 12.0048 2.94086 13.0592C3.99501 14.1133 5.70395 14.1136 6.75843 13.06C6.7587 13.0597 6.75897 13.0594 6.75924 13.0592L7.20618 12.6093C7.46891 12.3448 7.89629 12.3434 8.16077 12.6061C8.42524 12.8688 8.42665 13.2962 8.16392 13.5607L7.7154 14.0122L7.71383 14.0138C6.13221 15.5954 3.56789 15.5954 1.98627 14.0138C0.404643 12.4321 0.404643 9.86783 1.98627 8.28621L8.28626 1.98621C9.86789 0.404582 12.4322 0.404582 14.0138 1.98621C15.5943 3.56665 15.5954 6.12833 14.0174 7.71024L10.9081 10.9081C9.98552 11.8307 8.48962 11.8307 7.56701 10.908C6.6444 9.98543 6.6444 8.48958 7.56701 7.56697L10.6727 4.46123C10.9364 4.19762 11.3637 4.19762 11.6273 4.46123C11.8909 4.72483 11.8909 5.15222 11.6273 5.41582L8.52161 8.52156C8.1262 8.91697 8.1262 9.55805 8.52161 9.95345C8.91603 10.3479 9.5549 10.3489 9.95054 9.9564L13.0592 6.75913C14.1136 5.70471 14.1136 3.99522 13.0592 2.9408Z" fill="currentColor"/>
</svg>
