<svg width="16" height="13" viewBox="0 0 16 13" fill="none" xmlns="http://www.w3.org/2000/svg">
<path d="M3.4992 0.0212402C1.84245 0.0212402 0.499199 1.36449 0.499199 3.02124V9.02124C0.499199 9.43524 0.581696 9.83425 0.733196 10.1927C0.887696 10.558 1.11195 10.8797 1.3902 11.1542C1.6587 11.419 1.97445 11.638 2.3277 11.7872C2.69145 11.9432 3.0777 12.0212 3.4992 12.0212H12.4992C14.1559 12.0212 15.4992 10.678 15.4992 9.02124V3.02124C15.4992 1.36449 14.1559 0.0212402 12.4992 0.0212402H3.4992ZM3.4992 1.52124H12.4992C13.3279 1.52124 13.9992 2.19249 13.9992 3.02124L14 7.34047C12.4767 6.20272 11.3749 6.29124 9.66344 7.31049C8.15894 5.25474 6.7122 4.12674 5.3037 4.23999C4.2057 4.32849 3.2082 5.02375 2.00745 6.49525L1.9992 3.02124C1.9992 2.19249 2.67045 1.52124 3.4992 1.52124ZM11.7492 3.02124C11.3352 3.02124 10.9992 3.35724 10.9992 3.77124C10.9992 4.18524 11.3352 4.52124 11.7492 4.52124C12.1632 4.52124 12.4992 4.18524 12.4992 3.77124C12.4992 3.35724 12.1632 3.02124 11.7492 3.02124ZM5.3742 5.73999C6.4407 5.63799 7.4997 6.643 8.8662 8.69275C9.09645 9.03775 9.57646 9.13374 9.92071 8.90424C11.7942 7.65549 12.2674 7.666 13.9054 9.25525C13.9024 9.27325 13.8859 9.28449 13.8822 9.30249C13.8139 9.62049 13.679 9.90849 13.46 10.123C13.1967 10.3517 12.8757 10.5212 12.4992 10.5212H3.4992C3.1137 10.5212 2.78894 10.369 2.53844 10.123C2.28794 9.87699 2.11094 9.53648 2.06969 9.16223C3.32819 7.01498 4.35495 5.83749 5.3742 5.73999Z" fill="currentColor"/>
</svg>
