<svg width="42" height="38" viewBox="0 0 42 38" fill="none" xmlns="http://www.w3.org/2000/svg">
<path d="M33 37.4445L41.7006 29.8528L30.7758 26.1137L33 37.4445ZM1 5.44444C1.4138 6.35481 1.41364 6.35488 1.41357 6.35492C1.41365 6.35488 1.41366 6.35488 1.41383 6.3548C1.41417 6.35464 1.41485 6.35434 1.41585 6.35388C1.41786 6.35298 1.42119 6.35147 1.42583 6.34939C1.4351 6.34522 1.4496 6.33873 1.46918 6.33004C1.50836 6.31265 1.56788 6.28643 1.64673 6.2523C1.80445 6.18404 2.03938 6.08415 2.34325 5.95993C2.95114 5.71142 3.83405 5.36587 4.92588 4.98143C7.11229 4.21157 10.1228 3.29055 13.4321 2.67773C20.1434 1.4349 27.6745 1.53318 32.2929 6.15155L33.7071 4.73734C28.3255 -0.644287 19.8566 -0.546007 13.0679 0.711163C9.62718 1.34834 6.51271 2.30232 4.26162 3.09496C3.1347 3.49177 2.22073 3.84935 1.58644 4.10865C1.26922 4.23833 1.02172 4.34352 0.852289 4.41686C0.767565 4.45353 0.702338 4.48225 0.657647 4.50209C0.635302 4.51201 0.618088 4.51971 0.606137 4.52508C0.600161 4.52777 0.595501 4.52987 0.592172 4.53137C0.590508 4.53212 0.589177 4.53273 0.58818 4.53318C0.587682 4.5334 0.587186 4.53363 0.586937 4.53374C0.586525 4.53393 0.586197 4.53408 1 5.44444ZM32.2929 6.15155C35.0383 8.89699 36.1945 12.6707 36.4075 16.7431C36.6205 20.8153 35.8831 25.0847 34.9465 28.6778L36.8818 29.1823C37.845 25.4874 38.6327 20.9962 38.4048 16.6386C38.1769 12.2813 36.926 7.95625 33.7071 4.73734L32.2929 6.15155Z" fill="#1F2937"/>
</svg>
