<svg width="91" height="13" viewBox="0 0 91 13" fill="none" xmlns="http://www.w3.org/2000/svg">
<path d="M53.575 0C51.7128 0 49.8923 1.6863 49.6831 4.12284V0.200866H47.0088V12.0266H49.7158V6.30247C49.7158 4.69902 50.8522 2.43714 53.575 2.43714V0Z" fill="#5E2400"/>
<path d="M81.9694 10.1347V2.03262H83.5376C85.6284 2.03262 87.3272 3.3394 87.3272 6.0183C87.3272 8.69721 85.6284 10.1347 83.5376 10.1347H81.9694ZM79.2905 12.0295H83.8643C86.6738 12.0295 90.1368 10.2 90.1368 6.0183C90.1368 1.90194 86.6738 0.203125 83.8643 0.203125H79.2905V12.0295Z" fill="#5E2400"/>
<path d="M69.0401 6.14969C69.0401 3.9935 70.1509 2.22934 71.9804 2.22934C73.7446 2.22934 74.7246 3.9935 74.7246 6.14969C74.7246 8.30588 73.7446 10.07 71.9804 10.07C70.1509 10.07 69.0401 8.30588 69.0401 6.14969ZM66.2959 6.28036C66.2959 9.80867 68.1254 12.2916 71.0003 12.2916C73.0912 12.2916 74.3326 10.9194 74.986 8.69791V12.0302H77.6644V0.20383H74.986V3.34011C74.3979 1.24926 73.1565 0.0078125 71.1963 0.0078125C68.2561 0.0078125 66.2959 2.68671 66.2959 6.28036Z" fill="#5E2400"/>
<path d="M5.29247 12.2916C1.96017 12.2916 0 9.61266 0 6.28036C0 2.81739 2.15619 0.0078125 6.27255 0.0078125C10.5196 0.0078125 11.9571 2.88273 12.0224 4.51621H8.95146C8.88612 3.60146 8.10205 2.22934 6.20721 2.22934C4.1817 2.22934 2.87492 3.9935 2.87492 6.14969C2.87492 8.30588 4.1817 10.07 6.20721 10.07C8.03671 10.07 8.82078 8.63257 9.14747 7.19511H6.20721V6.01901H12.3769V12.0302H9.67019V8.24054C9.47417 9.61266 8.62476 12.2916 5.29247 12.2916Z" fill="#5E2400"/>
<path d="M17.8644 12.2909C15.3162 12.2909 13.748 10.592 13.748 7.19441V0.203125H16.4923V7.19441C16.4923 8.95856 17.3417 9.80797 18.7792 9.80797C21.5887 9.80797 22.6342 6.345 22.6342 3.92745V0.203125H25.3784V12.0295H22.6995V7.65178C22.1768 10.0693 20.7393 12.2909 17.8644 12.2909Z" fill="#5E2400"/>
<path d="M41.7774 0C39.4363 0 37.9593 2.2617 37.4772 4.35292C37.3947 1.55043 36.0166 0 33.8115 0C31.9064 0 30.1388 1.69898 29.6798 4.38675V0.201179H27.0046V12.0278H29.7141V7.78802C29.7141 6.73694 30.1523 2.42343 32.8798 2.42343C34.6467 2.42343 34.8309 4.01721 34.8309 6.1958V12.0278H37.5391V7.78802C37.5391 6.73694 37.9955 2.42343 40.723 2.42343C42.4883 2.42343 42.6708 4.01721 42.6708 6.1958V12.0278H45.3827V5.03244C45.3952 1.67644 44.2102 0 41.7774 0Z" fill="#5E2400"/>
<path d="M59.3877 0C55.8801 0 53.5034 2.75032 53.5034 6.14497C53.5034 9.88538 55.7638 12.2899 59.3877 12.2899C62.8953 12.2899 65.3144 9.53963 65.3144 6.14497C65.3144 2.40456 63.01 0 59.3877 0ZM59.3877 10.1965C57.3457 10.1965 56.023 8.4678 56.023 6.14497C56.023 3.82215 57.3504 2.09334 59.3877 2.09334C61.4251 2.09334 62.699 3.82215 62.699 6.14497C62.699 8.4678 61.4235 10.1965 59.3877 10.1965Z" fill="#5E2400"/>
</svg>
