<svg width="1282" height="799" viewBox="0 0 1282 799" fill="none" xmlns="http://www.w3.org/2000/svg">
<g clip-path="url(#clip0_163_1093)">
<path d="M294.87 673.802C236.837 596.561 549.776 440.966 549.776 440.966L489.629 329.539C489.629 329.539 364.799 407.903 267.248 505.429C246.373 527.572 214.335 502.851 239.856 470.911C302.753 392.182 470.629 273.528 470.629 273.528L363.971 204.119C363.971 204.119 280.437 266.148 163.447 433.869C142.054 464.538 109.489 443.323 125.746 410.96C167.35 328.141 283.495 203.025 283.495 203.025L166.743 168.784C166.743 168.784 87.8158 272.108 29.669 405.768C17.2357 434.34 -19.0465 422.397 -10.7607 393.478C3.58548 343.404 75.953 202.599 75.953 202.599L-27.1881 189.521C-27.1881 189.521 -141.225 375.589 -104.679 602.098C-83.8683 731.084 16.0555 869.153 167.462 888.985C315.935 908.434 460.244 815.716 526.643 652.244L433.483 563.817C433.483 563.817 350.922 748.409 294.87 673.802Z" fill="#FFF8E8" fill-opacity="0.2"/>
</g>
<defs>
<clipPath id="clip0_163_1093">
<rect width="1282" height="799" fill="white"/>
</clipPath>
</defs>
</svg>
