<svg width="20" height="20" viewBox="0 0 20 20" fill="none" xmlns="http://www.w3.org/2000/svg">
<rect x="0.5" y="0.5" width="19" height="19" rx="9.5" fill="#FEB81D"/>
<rect x="0.5" y="0.5" width="19" height="19" rx="9.5" stroke="white"/>
<path d="M11.1706 11.6105C10.2787 10.6676 14.1072 8.00592 14.1072 8.00592L13.1291 6.60392C13.1291 6.60392 11.6299 7.88633 10.5205 9.3798C10.2853 9.71664 9.82362 9.43873 10.1028 8.96101C10.791 7.78351 12.7845 5.87924 12.7845 5.87924L11.2698 5.12864C11.2698 5.12864 10.2829 6.11664 9.03944 8.59501C8.81205 9.04818 8.34952 8.81873 8.5068 8.3517C8.90927 7.15656 10.2147 5.25655 10.2147 5.25655L8.62817 5C8.62817 5 7.7724 6.53896 7.24059 8.4518C7.12686 8.86071 6.63159 8.76333 6.69045 8.3571C6.79235 7.65367 7.49801 5.61887 7.49801 5.61887L6.12585 5.62472C6.12585 5.62472 4.95248 8.34627 5.81901 11.3483C6.31245 13.0578 7.85677 14.75 9.87212 14.75C11.8484 14.75 13.578 13.2387 14.1667 10.9076L12.796 9.87553C12.796 9.87553 12.032 12.5213 11.1706 11.6105Z" fill="#480F0E"/>
</svg>
