<svg width="16" height="17" viewBox="0 0 16 17" fill="none" xmlns="http://www.w3.org/2000/svg"> <path d="M6.00005 2.8999C6.66279 2.8999 7.20005 3.43716 7.20005 4.0999C7.20005 4.76264 6.66279 5.2999 6.00005 5.2999C5.33731 5.2999 4.80005 4.76264 4.80005 4.0999C4.80005 3.43716 5.33731 2.8999 6.00005 2.8999Z" fill="#9CA3AF"/> <path d="M6.00005 7.2999C6.66279 7.2999 7.20005 7.83716 7.20005 8.4999C7.20005 9.16264 6.66279 9.6999 6.00005 9.6999C5.33731 9.6999 4.80005 9.16264 4.80005 8.4999C4.80005 7.83716 5.33731 7.2999 6.00005 7.2999Z" fill="#9CA3AF"/> <path d="M7.20005 12.8999C7.20005 12.2372 6.66279 11.6999 6.00005 11.6999C5.33731 11.6999 4.80005 12.2372 4.80005 12.8999C4.80005 13.5626 5.33731 14.0999 6.00005 14.0999C6.66279 14.0999 7.20005 13.5626 7.20005 12.8999Z" fill="#9CA3AF"/> <path d="M10 2.8999C10.6628 2.8999 11.2 3.43716 11.2 4.0999C11.2 4.76264 10.6628 5.2999 10 5.2999C9.33731 5.2999 8.80005 4.76264 8.80005 4.0999C8.80005 3.43716 9.33731 2.8999 10 2.8999Z" fill="#9CA3AF"/> <path d="M10 7.2999C10.6628 7.2999 11.2 7.83716 11.2 8.4999C11.2 9.16264 10.6628 9.6999 10 9.6999C9.33731 9.6999 8.80005 9.16264 8.80005 8.4999C8.80005 7.83716 9.33731 7.2999 10 7.2999Z" fill="#9CA3AF"/> <path d="M11.2 12.8999C11.2 12.2372 10.6628 11.6999 10 11.6999C9.33731 11.6999 8.80005 12.2372 8.80005 12.8999C8.80005 13.5626 9.33731 14.0999 10 14.0999C10.6628 14.0999 11.2 13.5626 11.2 12.8999Z" fill="#9CA3AF"/> </svg>