<svg width="10" height="14" viewBox="0 0 10 14" fill="none" xmlns="http://www.w3.org/2000/svg">
<path fill-rule="evenodd" clip-rule="evenodd" d="M0.625 0.75H5.06944C7.03312 0.75 8.625 2.28065 8.625 4.1688C8.625 5.23689 8.11561 6.19058 7.31768 6.81752C8.53097 7.346 9.375 8.52053 9.375 9.88462C9.375 11.7433 7.808 13.25 5.875 13.25H0.625V0.75ZM2.125 2.19231H5.06944C6.2047 2.19231 7.125 3.07721 7.125 4.1688C7.125 5.26039 6.2047 6.1453 5.06944 6.1453H2.125V2.19231ZM2.125 7.96154H5.875C6.97957 7.96154 7.875 8.82253 7.875 9.88462C7.875 10.9467 6.97957 11.8077 5.875 11.8077H2.125V7.96154Z" fill="currentColor"/>
</svg>
