<svg width="16" height="14" viewBox="0 0 16 14" fill="none" xmlns="http://www.w3.org/2000/svg">
<path d="M13.5 2.85001H4.5V1.35001H13.5V2.85001Z" fill="currentColor"/>
<path d="M15.9958 7.77491L4.49594 7.72506L4.50406 6.22508L16.0039 6.27494L15.9958 7.77491Z" fill="currentColor"/>
<path d="M4.5 12.65H10.5V11.15H4.5V12.65Z" fill="currentColor"/>
<path d="M1.42112 3.95H2.5V0.25H1.42112L0.5 0.870513V1.78077L1.40076 1.18077H1.42112V3.95Z" fill="currentColor"/>
<path d="M0.0640478 8.84999H3V8.044H1.4526V8.02385L2.12383 7.48988C2.71819 7.01888 2.95645 6.74686 2.95645 6.26074V6.25571C2.95645 5.58824 2.37233 5.14999 1.47822 5.14999C0.602049 5.14999 0 5.64869 0 6.38668V6.41187H0.988898L0.99146 6.37912C1.01196 6.11718 1.1836 5.93835 1.47822 5.93835C1.73441 5.93835 1.91119 6.09703 1.91119 6.32119V6.32623C1.91119 6.52773 1.82921 6.68641 1.37575 7.05414L0.0640478 8.12208V8.84999Z" fill="currentColor"/>
<path d="M1.48907 13.75C2.42429 13.75 3 13.3293 3 12.6511V12.6462C3 12.1834 2.66721 11.8938 2.13522 11.8369V11.8171C2.51903 11.7404 2.85425 11.4607 2.85425 11.0103V11.0053C2.85425 10.4237 2.32227 10.05 1.48178 10.05C0.665587 10.05 0.131174 10.4732 0.0874494 11.1291L0.0850202 11.1662H1.01296L1.01538 11.1439C1.03725 10.9509 1.20729 10.8147 1.48178 10.8147C1.74413 10.8147 1.90688 10.9434 1.90688 11.1513V11.1563C1.90688 11.3766 1.72227 11.5102 1.40405 11.5102H1.04211V12.2007H1.40405C1.76113 12.2007 1.95304 12.3319 1.95304 12.5744V12.5794C1.95304 12.7873 1.77814 12.9358 1.48664 12.9358C1.19514 12.9358 1.01296 12.7972 0.986235 12.6388L0.981377 12.6091H0L0.00242915 12.6412C0.0534413 13.3095 0.626721 13.75 1.48907 13.75Z" fill="currentColor"/>
</svg>
